<svg id="visual" viewBox="0 0 900 600" width="900" height="600" xmlns="http://www.w3.org/2000/svg" xmlns:xlink="http://www.w3.org/1999/xlink" version="1.1"><rect x="0" y="0" width="900" height="600" fill="#140021"></rect><path d="M0 278L69 278L69 246L138 246L138 275L208 275L208 260L277 260L277 244L346 244L346 309L415 309L415 267L485 267L485 288L554 288L554 226L623 226L623 286L692 286L692 329L762 329L762 283L831 283L831 246L900 246L900 247L900 0L900 0L831 0L831 0L762 0L762 0L692 0L692 0L623 0L623 0L554 0L554 0L485 0L485 0L415 0L415 0L346 0L346 0L277 0L277 0L208 0L208 0L138 0L138 0L69 0L69 0L0 0Z" fill="#560090"></path><path d="M0 168L69 168L69 232L138 232L138 225L208 225L208 176L277 176L277 187L346 187L346 209L415 209L415 196L485 196L485 193L554 193L554 234L623 234L623 159L692 159L692 213L762 213L762 154L831 154L831 208L900 208L900 143L900 0L900 0L831 0L831 0L762 0L762 0L692 0L692 0L623 0L623 0L554 0L554 0L485 0L485 0L415 0L415 0L346 0L346 0L277 0L277 0L208 0L208 0L138 0L138 0L69 0L69 0L0 0Z" fill="#7700c6"></path><path d="M0 103L69 103L69 74L138 74L138 63L208 63L208 94L277 94L277 81L346 81L346 144L415 144L415 124L485 124L485 123L554 123L554 70L623 70L623 77L692 77L692 91L762 91L762 134L831 134L831 96L900 96L900 118L900 0L900 0L831 0L831 0L762 0L762 0L692 0L692 0L623 0L623 0L554 0L554 0L485 0L485 0L415 0L415 0L346 0L346 0L277 0L277 0L208 0L208 0L138 0L138 0L69 0L69 0L0 0Z" fill="#9900ff"></path></svg>